<svg xmlns="http://www.w3.org/2000/svg" width="24" height="24" viewBox="0 0 24 24">
  <defs>
    <linearGradient id="g" x1="0%" y1="0%" x2="100%" y2="100%">
      <stop offset="0%" stop-color="#bd9fff" />
      <stop offset="50%" stop-color="#a259ff" />
      <stop offset="100%" stop-color="#ee9aff" />
    </linearGradient>
    <mask id="m">
      <g fill="none" stroke="white" stroke-width="2" stroke-linecap="round" stroke-linejoin="round">
        <path d="M11 21.73a2 2 0 0 0 2 0l7-4A2 2 0 0 0 21 16V8a2 2 0 0 0-1-1.73l-7-4a2 2 0 0 0-2 0l-7 4A2 2 0 0 0 3 8v8a2 2 0 0 0 1 1.73z" />
        <path d="M12 22V12" />
        <polyline points="3.29 7 12 12 20.71 7" />
        <path d="m7.5 4.27 9 5.15" />
      </g>
    </mask>
  </defs>
  <rect width="24" height="24" fill="url(#g)" mask="url(#m)" />
</svg>
